PathFileType	4	(X/Y/Z)	Patient4_TMGait_0pt2_02_left_12.trc.trc
DataRate	CameraRate	NumFrames	NumMarkers	Units	OrigDataRate	OrigDataStartFrame	OrigNumFrames
48.109965635739	48.109965635739	6	33	mm	48.109965635739	36	       141
Frame#	Time	R.Midfoot.Superior			Sacral			L.Shoulder			Chest			R.Shoulder			Neck			R.ASIS			L.ASIS			R.Thigh.Superior			R.Thigh.Lateral			R.Thigh.Inferior			R.Patella			L.Thigh.Superior			L.Thigh.Lateral			L.Thigh.Inferior			L.Patella			L.Shank.Superior			L.Shank.Lateral			L.Shank.Inferior			R.Shank.Superior			R.Shank.Lateral			R.Shank.Inferior			R.Heel			R.Midfoot.Lateral			R.Toe			L.Heel			L.Midfoot.Lateral			L.Midfoot.Superior			L.Toe			L.Elbow			L.Wrist			R.Elbow			R.Wrist			
		X1	Y1	Z1	X2	Y2	Z2	X3	Y3	Z3	X4	Y4	Z4	X5	Y5	Z5	X6	Y6	Z6	X7	Y7	Z7	X8	Y8	Z8	X9	Y9	Z9	X10	Y10	Z10	X11	Y11	Z11	X12	Y12	Z12	X13	Y13	Z13	X14	Y14	Z14	X15	Y15	Z15	X16	Y16	Z16	X17	Y17	Z17	X18	Y18	Z18	X19	Y19	Z19	X20	Y20	Z20	X21	Y21	Z21	X22	Y22	Z22	X23	Y23	Z23	X24	Y24	Z24	X25	Y25	Z25	X26	Y26	Z26	X27	Y27	Z27	X28	Y28	Z28	X29	Y29	Z29	X30	Y30	Z30	X31	Y31	Z31	X32	Y32	Z32	X33	Y33	Z33	

36	28.427500000000	614.654496028261	97.557434819718	540.305843940341	575.301478833231	1006.293742145895	480.764665830929	735.425287980285	1422.109763113927	250.414202142399	873.651805669003	1343.257142644157	377.700242709152	849.106400813317	1432.648347752010	558.361600352869	762.563760850317	1480.375533777557	406.295100115005	814.871153682630	926.391821194214	558.674706358324	758.244785373727	946.090522637991	290.827882192219	805.387163705150	712.762827327582	529.972432593479	706.284548594786	618.499300963728	599.578145547594	756.275558339242	554.485452016499	511.916399328843	733.817592263281	466.031475469431	517.696609185920	839.827960705653	766.066729764497	333.158855353846	788.644274987161	631.298420285965	263.582190385665	889.432931912252	574.039385040152	326.704353828390	906.803868596816	500.225593964798	328.939416836591	882.585236736917	425.189993803049	317.501032375176	801.270642640195	309.532856089251	256.808333265961	856.028046991628	196.356142380317	320.744783653283	684.202785576512	386.437453703402	528.896383823099	595.781891644173	301.990916987879	599.891786366067	606.740038883642	201.733887014391	532.704757723932	437.415105146364	56.179656288472	514.710017210598	524.306395509338	42.975021725746	583.443712985734	730.767135397488	37.459687081055	561.463618000432	731.202858138256	38.961814829961	345.246667801109	811.040518038707	35.971529203569	270.705720896691	892.784906074532	96.740323676671	303.451645358442	1022.238602009608	43.526368055450	283.287152379500	529.320269215235	1134.017280459763	200.275912412608	459.805949574751	892.005651722602	278.136759844948	1096.411037516016	1228.067937797932	639.172940195523	1267.962951978598	1347.350092059018	491.859934014395	
37	28.448285714286	611.202081902016	97.931065255080	540.384090886412	577.378504888413	1006.415838058201	475.276533744674	738.282700589690	1422.183523962384	245.746863578368	876.016130363714	1343.381005190065	373.586811267270	850.485339033579	1432.657009139292	554.161535911028	764.561380033121	1480.504841332456	401.913699153879	816.434820281404	926.477689623618	554.751634341182	761.495893195489	945.974865517828	286.574291546373	805.913510644949	712.626195592162	527.226371765847	705.974431243218	619.235718269096	596.903836938450	756.189032887659	554.344657787287	510.005873076147	733.241062255991	465.886192400257	516.287681369369	842.731910807971	765.960555703313	330.057746544664	791.648353203998	630.914962949463	260.792357050532	892.099700089612	573.580965753694	324.404574288934	909.158186401102	499.402737057075	327.183905291810	884.087245477594	424.114198987667	316.154669312822	801.592160238548	309.245962296824	255.505937913124	854.150892719703	195.798758931431	320.520891352145	682.900957502072	386.717631837630	527.672431489001	593.441911203846	303.445252459976	598.797847820860	603.998312108509	202.589566350508	532.401756009403	433.679909162719	58.262458183180	514.845203805014	520.476995476066	44.042089280212	583.482632907113	726.785683272182	37.330066793275	561.520927026364	727.267272013176	39.074917484151	345.190072936653	807.109366159686	35.993108303780	270.638081235560	888.967014306193	96.675607547114	303.492351511167	1018.404239509842	43.067262563605	283.317101593699	533.400963234472	1133.364205371479	193.252166410057	464.605583522115	890.536172165878	269.027621280319	1098.195478419480	1228.570392840390	635.196534010964	1272.886533890876	1345.159783769733	488.996940462644	
38	28.469071428571	607.865752037403	98.224469621428	540.459350969834	579.455358123739	1006.548097851162	469.587626217039	741.188143517765	1422.369272031534	241.103687878881	878.287903177397	1343.700457307731	369.679758598988	851.475437609823	1432.855966703175	550.135282031934	766.408631201103	1480.750741503971	397.553602950921	817.974692714152	926.668479994415	550.785151711013	764.894872175006	945.931803112587	282.240005301191	806.588789336450	712.598467871929	524.355826535905	705.906425727264	619.989654821126	594.084499235882	756.436753695462	554.240559743830	507.976579964328	733.117462114448	465.643003945442	514.835762964957	845.561463801226	765.659910056105	326.698263238798	794.295069656443	630.427852269723	257.821539184876	894.326232601696	572.916205737492	321.955091630330	910.993420662220	498.466083229627	325.298795983666	885.090654267420	422.972318073728	314.662900660439	801.431659025039	308.837681078904	254.128526001017	852.026458391571	195.227830349513	320.192729778626	681.908622783107	386.969168504733	526.377092645828	591.333372728587	304.957189307633	597.607178986747	601.444708794603	203.452079624569	532.089747712050	429.985490494327	60.442705380277	515.005139123369	516.698659092903	45.106022960428	583.523896212812	722.857608632776	37.195071115424	561.554636918712	723.248459217803	39.109133874693	345.136792695527	803.090512977025	35.971539782952	270.551747433981	885.032681552870	96.600009396866	303.505808337371	1014.467246213132	42.705814427880	283.343311900396	537.815666849508	1132.640939823674	185.920692533138	469.808082456097	888.871323122722	259.126740254641	1099.342693934333	1228.843380719487	631.861444596393	1277.663185385849	1342.386248110824	487.252932323180	
39	28.489857142857	604.693583675999	98.420579482439	540.547165415582	581.520064047348	1006.738134896941	463.729487502177	744.136042941308	1422.682621765825	236.495784930594	880.468946080938	1344.224409705836	365.976205756144	852.121251092632	1433.277700220954	546.272759762726	768.126329357279	1481.143386489726	393.220847057428	819.476256820085	926.985958492510	546.770868044691	768.393842489006	945.994900667970	277.827247942364	807.442803962986	712.702948260903	521.368001414417	706.127153714461	620.759713990511	591.133876451538	757.094001692547	554.184526670592	505.847765677896	733.533070197621	465.287801975657	513.385186830733	848.268752308268	765.196011220316	323.059249825513	796.496519083668	629.875670558930	254.668031205780	896.033262582823	572.075340654895	319.319759520593	912.215773402807	497.451777359591	323.249126835992	885.519462031803	421.802400803823	313.000868302533	800.732231541434	308.327356705519	252.662175568453	849.620489134311	194.656095420252	319.747444211694	681.304883752594	387.199216938258	525.041350456848	589.513279324184	306.551255033432	596.337641601322	599.135629878054	204.334721852470	531.785579947265	426.361491425847	62.760507724948	515.186738679337	512.992033337339	46.171930298148	583.565203899140	718.998441710820	37.024220246635	561.552852669583	719.145568808611	39.068994634882	345.085557412636	798.983446262729	35.909984188925	270.445002627026	880.979215947938	96.516359266904	303.485857826287	1010.428264668163	42.449796741149	283.362700782262	542.647138119137	1131.767111723348	178.362926623393	475.641782454962	886.911960456139	248.504883779115	1099.758605917630	1228.724987712456	629.178614233751	1282.171350502891	1338.900519683680	486.725139299757	
40	28.510642857143	601.748900845488	98.527718329949	540.667132922062	583.558523285853	1007.025262218437	457.731413439839	747.125619945836	1423.134655840028	231.933036378446	882.562803466447	1344.955600808656	362.472438650242	852.466794479994	1433.944972016072	542.562831220396	769.736610136692	1481.705699363983	388.922491565572	820.919747051712	927.450095790903	542.710417230862	771.949755254779	946.194236828415	273.346072340670	808.528305236915	712.967157618239	518.283532501418	706.715805346267	621.538928806847	588.076171958062	758.281362568353	554.186614318710	503.648943587223	734.619935852404	464.806735876874	511.992101998528	850.816149168874	764.605418691031	319.133214450483	798.201723351001	629.300968946427	251.331641245365	897.179972685354	571.099423770669	316.471547823359	912.779290320287	496.401276463360	321.002719750346	885.342025196619	420.646753128589	311.149176864049	799.481849545201	307.742313786941	251.094738109434	846.924928997928	194.100249051006	319.177086416608	681.214430893211	387.415313643943	523.705040837073	588.075628408136	308.267829383741	595.011797238164	597.155703904732	205.270240982071	531.507692697834	422.860777593109	65.309810160542	515.381548617998	509.386882133823	47.285113709040	583.601804598966	715.219790812708	36.779569366989	561.505018125989	714.971423752409	38.971274356751	345.035786476321	794.801554404345	35.817403566183	270.320512904246	876.823011312757	96.428007597008	303.428372090225	1006.302583980957	42.290862528337	283.372982658823	547.994700795432	1130.662667726441	170.651829615169	482.359486002362	884.565841576002	237.244697583855	1099.334086416748	1228.032243424652	627.135657308229	1286.292943762871	1334.509429395888	487.479647944919	
41	28.531428571429	599.106234888636	98.591823131457	540.838397114521	585.554860965540	1007.431958146561	451.620937657437	750.158589134380	1423.726736366759	227.424877344291	884.571477968908	1345.886597085398	359.166246512221	852.548395156158	1434.863965372736	538.996565345734	771.258402278874	1482.447403426563	384.666851674554	822.281480635327	928.075249416768	538.611566325102	775.525136504169	946.550120315663	268.814842267978	809.925838417593	713.421268200181	515.132037659340	707.794221599335	622.311865417507	584.943764276187	760.172166887391	554.255385718758	501.415423484025	736.563760525871	464.186672171230	510.716260027713	853.179046776550	763.923828795680	314.929825095937	799.399746869370	628.743616681529	247.817627853223	897.766836277232	570.033904112235	313.397770052002	912.688907012640	495.353464409121	318.535377210594	884.572423356308	419.543798812172	309.096078219366	797.709239089523	307.112298206726	249.418910656004	843.955707910711	193.576460556856	318.479595883464	681.812999272645	387.623723232238	522.410596010304	587.160688185314	310.164681237809	593.652620858138	595.620249155313	206.316332066718	531.271965786833	419.564093078524	68.253744592335	515.573751029272	505.922540201718	48.549027006192	583.624899900364	711.523769682360	36.421279763359	561.405017792712	710.747112088882	38.839859249646	344.987345996584	790.566553471685	35.706173994866	270.184348757932	872.593016607161	96.337821307194	303.332009700176	1002.114431694705	42.207354921028	283.372701172659	553.973034020051	1129.249651974898	162.848829228331	490.223343701270	881.753266239481	225.442565321928	1097.943615404874	1226.572285368105	625.700930254298	1289.904867965301	1328.958926593020	489.546157504146	
